<svg xmlns="http://www.w3.org/2000/svg" width="150" viewBox="0 0 112.5 30" height="40" version="1.0"><defs><clipPath id="a"><path d="M20 6h87.902v18H20Zm0 0"/></clipPath></defs><g clip-path="url(#a)"><path fill="#f1f2f3" d="M20.61 6.559h3.171v16.257H20.61Zm16.597 8.14c0 4.778 3.754 8.48 8.578 8.48 1.367 0 2.535-.265 3.977-.945v-3.73c-1.266 1.266-2.39 1.777-3.825 1.777-3.195 0-5.46-2.316-5.46-5.605 0-3.121 2.34-5.582 5.312-5.582 1.512 0 2.656.539 3.977 1.828v-3.73c-1.391-.704-2.536-.997-3.903-.997-4.804-.004-8.656 3.778-8.656 8.504Zm37.695 2.778L70.566 6.559h-3.46l6.898 16.671h1.703L82.73 6.56h-3.437Zm9.262 5.335h8.992v-2.75h-5.824v-4.386h5.61v-2.754h-5.61v-3.61h5.824V6.56h-8.992Zm21.543-11.453c0-3.043-2.094-4.8-5.75-4.8h-4.703v16.257h3.168v-6.53h.414l4.387 6.53h3.902l-5.121-6.847c2.39-.489 3.703-2.121 3.703-4.61Zm-6.355 2.684h-.93V9.121h.976c1.977 0 3.047.824 3.047 2.406 0 1.637-1.07 2.516-3.093 2.516Zm0 0"/></g><path fill="#f1f2f3" d="M67.68 14.723c0 .558-.055 1.109-.164 1.652a8.417 8.417 0 0 1-.48 1.594 8.507 8.507 0 0 1-3.121 3.8 8.42 8.42 0 0 1-3.06 1.266 8.405 8.405 0 0 1-3.308 0 8.186 8.186 0 0 1-1.59-.48 8.57 8.57 0 0 1-2.75-1.836 9.006 9.006 0 0 1-1.055-1.285 8.509 8.509 0 0 1-1.265-6.364c.11-.547.27-1.078.484-1.59a8.467 8.467 0 0 1 .781-1.468c.313-.461.664-.89 1.055-1.285a8.683 8.683 0 0 1 1.285-1.051 8.5 8.5 0 0 1 1.465-.785 8.466 8.466 0 0 1 1.59-.48 8.415 8.415 0 0 1 3.308 0 8.42 8.42 0 0 1 3.059 1.266 8.494 8.494 0 0 1 2.336 2.335c.309.465.57.953.785 1.468a8.26 8.26 0 0 1 .48 1.59c.11.543.165 1.098.165 1.653ZM10.422 6.559H5.77v16.257h4.628c7.07 0 8.75-5.586 8.75-8.113 0-4.8-3.582-8.144-8.726-8.144Zm-.633 13.504h-.851V9.313h1.054c4.32 0 5.895 2.808 5.895 5.363 0 1.222-.39 5.386-6.098 5.386Zm21.742-7.266c-1.902-.703-2.46-1.168-2.46-2.047 0-1.023.995-1.805 2.363-1.805.949 0 1.73.39 2.554 1.32l1.66-2.175a7.067 7.067 0 0 0-2.222-1.344 6.97 6.97 0 0 0-2.555-.457c-2.875 0-5.07 1.996-5.07 4.656 0 2.239 1.035 3.344 4 4.457 1.726.653 3.14 1.036 3.14 2.61 0 1.316-1.046 2.293-2.46 2.293-1.512 0-2.731-.754-3.461-2.168l-2.047 1.972c1.46 2.145 3.215 3.098 5.625 3.098 3.293 0 5.605-2.191 5.605-5.34.004-2.582-1.066-3.75-4.672-5.07Zm0 0"/></svg>