<svg xmlns="http://www.w3.org/2000/svg" xmlns:xlink="http://www.w3.org/1999/xlink" width="412" height="108" version="1.0" viewBox="0 0 309 81"><defs><path id="b" fill-opacity=".22" d="M-30.9-8.1h370.8v97.2H-30.9z"/><path id="c" fill="#fff" d="M-30.9-8.1h370.8v97.2H-30.9z"/></defs><defs><clipPath id="f"><path d="M.543 0h245.914v81H.543Zm0 0"/></clipPath><clipPath id="g"><path d="M123.5-78.36C55.594-78.36.543-23.308.543 44.599c0 67.906 55.05 122.953 122.957 122.953 67.906 0 122.957-55.047 122.957-122.953 0-67.907-55.05-122.957-122.957-122.957"/></clipPath><clipPath id="e"><path d="M0 0h247v81H0z"/></clipPath><clipPath id="j"><path d="M.637 0h175.726v81H.637Zm0 0"/></clipPath><clipPath id="k"><path d="M88.5-43.266C39.973-43.266.637-3.93.637 44.598c0 48.523 39.336 87.863 87.863 87.863 48.523 0 87.863-39.34 87.863-87.863 0-48.528-39.34-87.864-87.863-87.864"/></clipPath><clipPath id="i"><path d="M0 0h177v81H0z"/></clipPath><clipPath id="n"><path d="M.195 0h104.61v81H.195Zm0 0"/></clipPath><clipPath id="o"><path d="M52.5-7.707C23.613-7.707.195 15.711.195 44.598c0 28.886 23.418 52.3 52.305 52.3s52.305-23.414 52.305-52.3c0-28.887-23.418-52.305-52.305-52.305"/></clipPath><clipPath id="m"><path d="M0 0h105v81H0z"/></clipPath><mask id="d"><g filter="url(#a)"><use xlink:href="#b" fill-opacity=".22"/></g></mask><mask id="h"><g filter="url(#a)"><use xlink:href="#b" fill-opacity=".176"/></g></mask><mask id="l"><g filter="url(#a)"><use xlink:href="#b" fill-opacity=".208"/></g></mask><filter id="a" width="100%" height="100%" x="0%" y="0%"><feColorMatrix color-interpolation-filters="sRGB" values="0 0 0 0 1 0 0 0 0 1 0 0 0 0 1 0 0 0 1 0"/></filter></defs><use xlink:href="#c"/><use xlink:href="#c"/><path fill="#A642AE" d="M-30.9-8.1h370.8v97.2H-30.9z"/><g mask="url(#d)"><g clip-path="url(#e)" transform="translate(31)"><g clip-path="url(#f)"><g clip-path="url(#g)"><path fill="#4B7269" d="M.543-78.36h245.914v245.91H.543Zm0 0"/></g></g></g></g><g mask="url(#h)"><g clip-path="url(#i)" transform="translate(66)"><g clip-path="url(#j)"><g clip-path="url(#k)"><path fill="#4B7269" d="M.637-43.266h175.726v175.727H.637Zm0 0"/></g></g></g></g><g mask="url(#l)"><g clip-path="url(#m)" transform="translate(102)"><g clip-path="url(#n)"><g clip-path="url(#o)"><path fill="#4B7269" d="M.195-7.707h104.61V96.898H.195Zm0 0"/></g></g></g></g></svg>