<svg xmlns="http://www.w3.org/2000/svg" viewBox="0 0 235.9 120.6"><path fill="#fff" d="M61.6 61.4c-2.8 15-13 27.2-28.4 29.8Q13.6 94.6.7 80.2a.8.6 45.7 0 1 0-1l11.8-13.4a1 .9 47.5 0 1 1.4 0c7.5 10 22.9 12 26.7-2.7 3.7-14.2 5.6-29.6 8-44.2a.5.5 0 0 0-.4-.5h-25a.8.4 2.6 0 1-.8-.5l2.5-16a1.2.8 1.5 0 1 1-.7c15.4-.5 30.2.4 45-.2a1 1 0 0 1 1 1.1q-5 29.4-10.3 59.3z"/><path fill="#fff" d="M136.3 45.3 109.6.7c-.2-.3-.1-.3.2-.3l25 .3.6.5 16.9 26.2c0 .3.5.3.7 0l21-26.2h.4l37-.4c.2 0 .4.2.3.5l-3.8 13.3c0 .2-.3.3-.4.3H187c-.2 0-.3 0-.3.2l-24 29.7v.4l13 23.3 13.5 23.6c-.5-.2.8.4.5.4l-25-.3c4.4-.6.3.3.2.1l-18.1-29.5a.4.4 0 0 0-.7 0l-24 29.3-.3.2-33.6-.2a.4.4 0 0 1-.4-.5l2.8-13.5c0-.2.2-.8.4-.8h19.3l25.8-31.6c0-.1.2-.3 0-.5zm80.6-44.2H235a.3.3 0 0 1 .3.5L232.8 16a.3.3 0 0 1-.3.3h-19.2a.3.3 0 0 1-.3-.4l3.6-14.6a.3.3 0 0 1 .3-.2Z"/><path fill="#fff" d="M212.6 21.1h19a.8.7 0 0 1 .9.7l-13.2 70.3a.8.7 0 0 1-.7.6h-19.2a.8.7 0 0 1-.8-.8l13.2-70.2a.8.7 0 0 1 .8-.6zM80.2 1.2c6.2-.8 12.3 0 18.4 0 .5 0 1 .4.8 1L86.9 73c0 .4-.4.6-1 .6l-18-.2c-1 0-1-.6-.7-1.4L79.6 2c0-.4.3-.6.6-.7z"/><path fill="#fff" d="M67 77.4h18.5a.5.5 0 0 1 .4.6l-3 13.5a.5.5 0 0 1-.4.4h-18a.5.5 0 0 1-.5-.6l2.7-13.5a.5.5 0 0 1 .4-.4z"/><path fill="#fff" d="M88 108.1c-5-3.3-10.5 1.8-8.3 7.2q1 2.4 4.2 1.3l3.3-1.2a.9 1 56.9 0 1 .9.2q1.3 1.2-.1 2.4a10 10 0 0 1-8.5 1.6c-11-3.9.9-21.8 10.5-14a1.1 1.2 14.7 0 1 .4.8q.2 1.8-1.5 2a1.3.3 36.8 0 1-1-.3zm41.5 9c5 .3 5.5-8.9 6-12.4a.4 1 9.5 0 1 .6-.9l2.3.3a.4 1 8.2 0 1 .3 1c-1 6.7-1.3 16.4-11 14.5-6.3-1.2-3.2-11-2-15a1.2 1 88.3 0 1 .5-.8c4-1.9 1.3 9.2 1.2 11q-.2 2.2 2 2.3zm-9.8-11a7.4 8.9 49.6 0 1-2 11.4 7.4 8.9 49.6 0 1-11.5.1 7.4 8.9 49.6 0 1 2-11.4 7.4 8.9 49.6 0 1 11.5 0zm-10 10.4a4.5 5.5 35.7 0 0 6.8-1.9 4.5 5.5 35.7 0 0-.4-7 4.5 5.5 35.7 0 0-7 1.8 4.5 5.5 35.7 0 0 .5 7.1zm31.3 3a1 1 0 0 1-.8-1l2.3-13.6a.8.8 0 0 1 .6-.6q4.7-1 9.2.4 2.7.8 3.2 3.6c1.6 9.8-6.6 12.3-14.5 11.2zm5.4-12.3a1 1.3 7.3 0 0-1.2 1.1l-1 7.4a1.2 1 2.4 0 0 1.2 1.2q8.3-.2 6.2-8.3a1.1.6 79.6 0 0-.7-.9zM96 116.7c2 .3 7.2-1 6 2.5a.7.6 6.7 0 1-.6.4l-9.2.2a.4.3 3.9 0 1-.4-.4l2.4-14.2a.4 1.2 8.5 0 1 .5-1l2.7-.2a.4.8 7.4 0 1 .3 1l-2 11.2a.5.5 0 0 0 .4.5zm-36.5 2.4c-15.5.8-30.6.7-45.8.8a.5.4 3.6 0 1-.5-.5l2.4-13a.6.6 0 0 1 .6-.5h45a.8.4 1.8 0 1 .7.5l-1.7 12.3a.8.5.3 0 1-.7.4zm152.1.1c-15.3.5-30.6.5-46 .8a.4.3 2 0 1-.4-.3l2.3-13.2a.7.7 0 0 1 .7-.6h45a.8.9 4.9 0 1 .7 1l-1.7 11.8a.6.6 0 0 1-.6.5z"/></svg>