<svg xmlns="http://www.w3.org/2000/svg" viewBox="0 0 500 500"><path style="fill:#ebebeb" d="M0 382.4h500v.25H0zm237-44.6H43.92a5.71 5.71 0 0 1-5.71-5.71V60.66A5.71 5.71 0 0 1 43.92 55H237a5.71 5.71 0 0 1 5.71 5.71v271.38a5.71 5.71 0 0 1-5.71 5.71ZM43.92 55.2a5.47 5.47 0 0 0-5.46 5.46v271.43a5.47 5.47 0 0 0 5.46 5.46H237a5.47 5.47 0 0 0 5.46-5.46V60.66A5.47 5.47 0 0 0 237 55.2Zm409.39 282.6h-193.1a5.72 5.72 0 0 1-5.71-5.71V60.66a5.72 5.72 0 0 1 5.71-5.66h193.1a5.71 5.71 0 0 1 5.69 5.66v271.43a5.71 5.71 0 0 1-5.69 5.71ZM260.21 55.2a5.47 5.47 0 0 0-5.46 5.46v271.43a5.47 5.47 0 0 0 5.46 5.46h193.1a5.47 5.47 0 0 0 5.46-5.46V60.66a5.47 5.47 0 0 0-5.46-5.46Zm158.12 336.72h31.57v.25h-31.57zm-116.4-2.71h33.41v.25h-33.41zm94.66 12h62.43v.25h-62.43zm-344.13-1.68h19.23v.25H52.46zm28.14 0h30.29v.25H80.6zm108.98-4.22h54.56v.25h-54.56z"/><path d="M350.24 272.62H91.72A10 10 0 0 1 81.65 262l9.21-176.4A11.36 11.36 0 0 1 102 75h258.56a10 10 0 0 1 10.08 10.63L361.43 262a11.37 11.37 0 0 1-11.19 10.62Z" style="fill:#e0e0e0"/><path d="M349.41 272.62H90.9A10 10 0 0 1 80.82 262L90 85.59A11.36 11.36 0 0 1 101.22 75h258.51a10 10 0 0 1 10.08 10.63L360.6 262a11.36 11.36 0 0 1-11.19 10.62Z" style="fill:#f0f0f0"/><path d="M359.46 80.28H100.07c-6.68.55-6.58 10.6.09 10.6h259c6.67 0 7.82-10 1.2-10.6-.36.01-.61 0-.9 0Z" style="fill:#e0e0e0"/><path d="M107 85.59a2.6 2.6 0 0 1-2.55 2.41 2.29 2.29 0 0 1-2.31-2.44 2.6 2.6 0 0 1 2.56-2.44 2.29 2.29 0 0 1 2.3 2.47Zm8.3 0a2.6 2.6 0 0 1-2.56 2.41 2.29 2.29 0 0 1-2.31-2.44 2.6 2.6 0 0 1 2.57-2.41 2.29 2.29 0 0 1 2.3 2.44Zm8.29 0A2.6 2.6 0 0 1 121 88a2.29 2.29 0 0 1-2.31-2.44 2.6 2.6 0 0 1 2.56-2.44 2.29 2.29 0 0 1 2.34 2.47Z" style="fill:#fafafa"/><path d="M344.75 255H97.4a3.62 3.62 0 0 1-3.65-3.86l7.57-145.06a4.11 4.11 0 0 1 4.06-3.86h247.34a3.63 3.63 0 0 1 3.66 3.86l-7.58 145.08a4.1 4.1 0 0 1-4.05 3.84Z" style="fill:#fff"/><path d="M428.06 140.91h-246a10.69 10.69 0 0 0-10.53 10l-8.83 169.9a9.43 9.43 0 0 0 9.48 10h246a10.71 10.71 0 0 0 10.53-10l8.87-169.89a9.43 9.43 0 0 0-9.52-10.01Z" style="fill:#ebebeb"/><path d="M418.32 327.48a7.11 7.11 0 0 0 7-6.67l8.87-169.89a6.28 6.28 0 0 0-6.32-6.68h-246a7.12 7.12 0 0 0-7 6.68L166 320.81a6.28 6.28 0 0 0 6.33 6.67Z" style="fill:#fff"/><path d="M203.56 274.25h189.11a12.15 12.15 0 0 0 12-11.36l3.92-75.13a10.71 10.71 0 0 0-10.77-11.37H208.67a12.16 12.16 0 0 0-12 11.37l-3.92 75.13a10.71 10.71 0 0 0 10.81 11.36Z" style="fill:#ebebeb;opacity:.4"/><path d="m326.92 297.59-1.56 29.89h-60.05l1.56-29.89a10.07 10.07 0 0 1 9.93-9.44H318a8.86 8.86 0 0 1 8.92 9.44Zm-75.92 0-1.56 29.89h-60.02l1.58-29.89a10.06 10.06 0 0 1 9.93-9.44h41.17a8.87 8.87 0 0 1 8.9 9.44Zm151.82 0-1.56 29.89h-60.05l1.56-29.89a10.06 10.06 0 0 1 9.93-9.44h41.17a8.87 8.87 0 0 1 8.95 9.44Z" style="fill:#f0f0f0;opacity:.6000000000000001"/><rect x="293.17" y="219.53" width="96.53" height="15.76" rx="7.88" style="fill:#ebebeb;opacity:.9"/><path d="M326.79 259.24h53.36a8.43 8.43 0 0 0 8.3-7.89 7.44 7.44 0 0 0-7.48-7.88h-53.36a8.42 8.42 0 0 0-8.29 7.88 7.43 7.43 0 0 0 7.47 7.89Z" style="fill:#ebebeb;opacity:.9"/><path d="M217.94 161.11h-17.42a2.27 2.27 0 0 1-2.29-2.41 2.58 2.58 0 0 1 2.54-2.41h17.42a2.27 2.27 0 0 1 2.28 2.41 2.57 2.57 0 0 1-2.53 2.41Zm10.32-2.41a3.57 3.57 0 0 0 3.6 3.8 4 4 0 0 0 4-3.8 3.57 3.57 0 0 0-3.6-3.8 4 4 0 0 0-4 3.8Zm171.86 3.89H408a2 2 0 0 0 1.95-1.85l.21-4.08a1.73 1.73 0 0 0-1.75-1.85h-7.89a2 2 0 0 0-1.95 1.85l-.21 4.08a1.73 1.73 0 0 0 1.76 1.85Z" style="fill:#ebebeb"/><path d="M368.28 159.91h19.49a1.28 1.28 0 0 0 1.23-1.21 1.13 1.13 0 0 0-1.14-1.2h-19.45a1.28 1.28 0 0 0-1.27 1.2 1.14 1.14 0 0 0 1.14 1.21Zm-33.78 0H354a1.28 1.28 0 0 0 1.27-1.21 1.13 1.13 0 0 0-1.14-1.2h-19.5a1.28 1.28 0 0 0-1.27 1.2 1.13 1.13 0 0 0 1.14 1.21Zm-33.78 0h19.48a1.29 1.29 0 0 0 1.27-1.21 1.14 1.14 0 0 0-1.14-1.2h-19.49a1.28 1.28 0 0 0-1.26 1.2 1.13 1.13 0 0 0 1.14 1.21Zm-33.79 0h19.49a1.29 1.29 0 0 0 1.27-1.21 1.14 1.14 0 0 0-1.15-1.2h-19.48a1.29 1.29 0 0 0-1.27 1.2 1.14 1.14 0 0 0 1.14 1.21Z" style="fill:#f5f5f5"/><ellipse cx="250" cy="416.24" rx="193.89" ry="11.32" style="fill:#f5f5f5"/><path d="M114 181.89a1 1 0 0 1-1-1 1 1 0 0 1 1-1 1 1 0 0 1 1 1.05 1 1 0 0 1-1 .95Zm279.8-.28a1 1 0 0 1-.95-1 1 1 0 0 1 1-1 1 1 0 0 1 1 1 1 1 0 0 1-1 1h-.05Zm-279.52-5.71a1 1 0 0 1-1-1.05 1 1 0 0 1 1.05-.95 1 1 0 0 1 .95 1 1 1 0 0 1-1 1Zm279.8-.28a1 1 0 0 1-1-1 1 1 0 0 1 1.05-1 1 1 0 0 1 .95 1 1 1 0 0 1-1 1Zm-279.54-5.72a1 1 0 0 1-1-1 1 1 0 0 1 1-1 1 1 0 0 1 1 1 1 1 0 0 1-1 1Zm279.8-.27a1 1 0 0 1-.95-1 1 1 0 0 1 1-1 1 1 0 0 1 1 1 1 1 0 0 1-1 1h-.05Zm-5.94-2a1 1 0 0 1 1-1 1 1 0 0 1 1 1 1 1 0 0 1-1 1 1 1 0 0 1-1-.97Zm-6 0a1 1 0 0 1 1-1 1 1 0 0 1 1 1 1 1 0 0 1-1 1 1 1 0 0 1-1-.97Zm-6 0a1 1 0 0 1 1-1 1 1 0 0 1 1 1 1 1 0 0 1-1 1 1 1 0 0 1-1-.97Zm-6 0a1 1 0 0 1 1-1 1 1 0 0 1 1 1 1 1 0 0 1-1 1 1 1 0 0 1-1-.97Zm-6 0a1 1 0 0 1 1-1 1 1 0 0 1 1 1 1 1 0 0 1-1 1 1 1 0 0 1-1-.97Zm-6 0a1 1 0 0 1 1-1 1 1 0 0 1 1 1 1 1 0 0 1-1 1 1 1 0 0 1-1-.97Zm-6 0a1 1 0 0 1 1-1 1 1 0 0 1 1 1 1 1 0 0 1-1 1 1 1 0 0 1-1-.97Zm-6 0a1 1 0 0 1 1-1 1 1 0 0 1 1 1 1 1 0 0 1-1 1 1 1 0 0 1-1-.97Zm-6 0a1 1 0 0 1 1-1 1 1 0 0 1 1 1 1 1 0 0 1-1 1 1 1 0 0 1-1-.97Zm-6 0a1 1 0 0 1 1-1 1 1 0 0 1 1 1 1 1 0 0 1-1 1 1 1 0 0 1-1-.97Zm-6 0a1 1 0 0 1 1-1 1 1 0 0 1 1 1 1 1 0 0 1-1 1 1 1 0 0 1-1-.97Zm-6 0a1 1 0 0 1 1-1 1 1 0 0 1 1 1 1 1 0 0 1-1 1 1 1 0 0 1-1-.97Zm-6 0a1 1 0 0 1 1-1 1 1 0 0 1 1 1 1 1 0 0 1-1 1 1 1 0 0 1-1-.97Zm-6 0a1 1 0 0 1 1-1 1 1 0 0 1 1 1 1 1 0 0 1-1 1 1 1 0 0 1-1-.97Zm-6 0a1 1 0 0 1 1-1 1 1 0 0 1 1 1 1 1 0 0 1-1 1 1 1 0 0 1-1-.97Zm-6 0a1 1 0 0 1 1-1 1 1 0 0 1 1 1 1 1 0 0 1-1 1 1 1 0 0 1-1-.97Zm-6 0a1 1 0 0 1 1-1 1 1 0 0 1 1 1 1 1 0 0 1-1 1 1 1 0 0 1-1-.97Zm-6 0a1 1 0 0 1 1-1 1 1 0 0 1 1 1 1 1 0 0 1-1 1 1 1 0 0 1-1-.97Zm-6 0a1 1 0 0 1 1-1 1 1 0 0 1 1 1 1 1 0 0 1-1 1 1 1 0 0 1-1-.97Zm-6 0a1 1 0 0 1 1-1 1 1 0 0 1 1 1 1 1 0 0 1-1 1 1 1 0 0 1-1-.97Zm-6 0a1 1 0 0 1 1-1 1 1 0 0 1 1 1 1 1 0 0 1-1 1 1 1 0 0 1-1-.97Zm-6 0a1 1 0 0 1 1-1 1 1 0 0 1 1 1 1 1 0 0 1-1 1 1 1 0 0 1-1-.97Zm-6 0a1 1 0 0 1 1-1 1 1 0 0 1 1 1 1 1 0 0 1-1 1 1 1 0 0 1-1-.97Zm-6 0a1 1 0 0 1 1-1 1 1 0 0 1 1 1 1 1 0 0 1-1 1 1 1 0 0 1-1-.97Zm-6 0a1 1 0 0 1 1-1 1 1 0 0 1 1 1 1 1 0 0 1-1 1 1 1 0 0 1-1-.97Zm-6 0a1 1 0 0 1 1-1 1 1 0 0 1 1 1 1 1 0 0 1-1 1 1 1 0 0 1-1-.97Zm-6 0a1 1 0 0 1 1-1 1 1 0 0 1 1 1 1 1 0 0 1-1 1 1 1 0 0 1-1-.97Zm-6 0a1 1 0 0 1 1-1 1 1 0 0 1 1 1 1 1 0 0 1-1 1 1 1 0 0 1-1-.97Zm-6 0a1 1 0 0 1 1-1 1 1 0 0 1 1 1 1 1 0 0 1-1 1 1 1 0 0 1-1-.97Zm-6 0a1 1 0 0 1 1-1 1 1 0 0 1 1 1 1 1 0 0 1-1 1 1 1 0 0 1-1-.97Zm-6 0a1 1 0 0 1 1-1 1 1 0 0 1 1 1 1 1 0 0 1-1 1 1 1 0 0 1-1-.97Zm-6 0a1 1 0 0 1 1-1 1 1 0 0 1 1 1 1 1 0 0 1-1 1 1 1 0 0 1-1-.97Zm-6 0a1 1 0 0 1 1-1 1 1 0 0 1 1 1 1 1 0 0 1-1 1 1 1 0 0 1-1-.97Zm-6 0a1 1 0 0 1 1-1 1 1 0 0 1 1 1 1 1 0 0 1-1 1 1 1 0 0 1-1-.97Zm-6 0a1 1 0 0 1 1-1 1 1 0 0 1 1 1 1 1 0 0 1-1 1 1 1 0 0 1-1-.97Zm-6 0a1 1 0 0 1 1-1 1 1 0 0 1 1 1 1 1 0 0 1-1 1 1 1 0 0 1-1-.97Zm-6 0a1 1 0 0 1 1-1 1 1 0 0 1 1 1 1 1 0 0 1-1 1 1 1 0 0 1-1-.97Zm-6 0a1 1 0 0 1 1-1 1 1 0 0 1 1 1 1 1 0 0 1-1 1 1 1 0 0 1-1-.97Zm-6 0a1 1 0 0 1 1-1 1 1 0 0 1 1 1 1 1 0 0 1-1 1 1 1 0 0 1-1-.97Zm-6 0a1 1 0 0 1 1-1 1 1 0 0 1 1 1 1 1 0 0 1-1 1 1 1 0 0 1-1-.97Zm-6 0a1 1 0 0 1 1-1 1 1 0 0 1 1 1 1 1 0 0 1-1 1 1 1 0 0 1-1-.97Zm-6 0a1 1 0 0 1 1-1 1 1 0 0 1 1 1 1 1 0 0 1-1 1 1 1 0 0 1-1-.97Zm-6 0a1 1 0 0 1 1-1 1 1 0 0 1 1 1 1 1 0 0 1-1 1 1 1 0 0 1-1-.97Zm-6 0a1 1 0 0 1 1-1 1 1 0 0 1 1 1 1 1 0 0 1-1 1 1 1 0 0 1-1-.97Zm-6 0a1 1 0 0 1 1-1 1 1 0 0 1 1 1 1 1 0 0 1-1 1 1 1 0 0 1-1-.97Zm-6 0a1 1 0 0 1 1-1 1 1 0 0 1 1 1 1 1 0 0 1-1 1 1 1 0 0 1-1-.97Zm136.5 55.5a1 1 0 0 1-1-1 1 1 0 0 1 1-1 1 1 0 0 1 1 1 1 1 0 0 1-1 1Zm.27-6a1 1 0 0 1-1-1 1 1 0 0 1 1-1 1 1 0 0 1 .95 1.05 1 1 0 0 1-1 .95Zm.26-6a1 1 0 0 1-1-1.05 1 1 0 0 1 1-.95 1 1 0 0 1 1 1 1 1 0 0 1-1 1Zm.27-6a1 1 0 0 1-1-1 1 1 0 0 1 1-1 1 1 0 0 1 1 1 1 1 0 0 1-1 1Zm.26-6a1 1 0 0 1-1-1 1 1 0 0 1 1.05-1 1 1 0 0 1 .95 1 1 1 0 0 1-1 1Zm.26-6a1 1 0 0 1-1-1 1 1 0 0 1 1-1 1 1 0 0 1 1 1 1 1 0 0 1-1 .95Zm.27-6a1 1 0 0 1-1-1 1 1 0 0 1 1-1 1 1 0 0 1 .95 1.05 1 1 0 0 1-1 .95Zm.26-6a1 1 0 0 1-.95-1.05 1 1 0 0 1 1-.95 1 1 0 0 1 1 1 1 1 0 0 1-1 1h-.05Zm.27-6a1 1 0 0 1-1-1 1 1 0 0 1 1.05-1 1 1 0 0 1 .95 1 1 1 0 0 1-1 1Z" style="fill:#A642AE"/><path d="M298.32 114.6a17.53 17.53 0 0 0-23.45-15.46 23.84 23.84 0 0 0-43.32 7.66h-.83a24.1 24.1 0 1 0 0 48.19h58.94a21.11 21.11 0 0 0 8.66-40.37Z" style="fill:#263238"/><path d="m233.15 93.27-.7-.71a27.8 27.8 0 0 1 4.33-3.47l.54.84a26.79 26.79 0 0 0-4.17 3.34Zm-15.73 12.99-.38-.93a27.42 27.42 0 0 1 8.61-2 27.11 27.11 0 0 1 4-7.56l.8.6a26 26 0 0 0-3.95 7.63l-.11.33h-.34a26.35 26.35 0 0 0-8.63 1.93Z" style="fill:#A642AE"/><path d="M295.08 114.6a17.53 17.53 0 0 0-23.45-15.46 23.84 23.84 0 0 0-43.32 7.66h-.83a24.1 24.1 0 0 0 0 48.19h58.94a21.11 21.11 0 0 0 8.66-40.37Z" style="fill:#A642AE"/><path d="m256.3 123.19-9.4-9.39a.82.82 0 0 0-1.17 0l-9.4 9.39a.83.83 0 0 0 .59 1.42h4a.84.84 0 0 1 .83.84v13.11a.83.83 0 0 0 .83.83h7.53a.83.83 0 0 0 .83-.83v-13.11a.84.84 0 0 1 .83-.84h4a.83.83 0 0 0 .53-1.42Z" style="fill:#fff"/><path d="m254.62 129.75 9.4 9.4a.85.85 0 0 0 1.18 0l9.39-9.4a.83.83 0 0 0-.58-1.42h-4a.84.84 0 0 1-.84-.83v-13.12a.83.83 0 0 0-.83-.83h-7.52a.84.84 0 0 0-.84.83v13.12a.83.83 0 0 1-.83.83h-4a.83.83 0 0 0-.53 1.42Z" style="fill:#fff"/><path d="M413.3 288h-43.39a3.08 3.08 0 0 1-3.09-3.24l3.83-86.92a3.42 3.42 0 0 1 3.38-3.23h43.39a3.08 3.08 0 0 1 3.1 3.23l-3.84 86.92a3.43 3.43 0 0 1-3.38 3.24Z" style="fill:#263238"/><path d="M411.77 288h-43.39a3.09 3.09 0 0 1-3.1-3.24l3.83-86.92a3.42 3.42 0 0 1 3.38-3.23h43.4a3.07 3.07 0 0 1 3.09 3.23l-3.83 86.92a3.43 3.43 0 0 1-3.38 3.24Z" style="fill:#A642AE"/><path d="M393.17 286.16h-6a.72.72 0 0 1-.72-.76v-.19a.8.8 0 0 1 .79-.75h6a.71.71 0 0 1 .72.75v.19a.79.79 0 0 1-.79.76Z" style="opacity:.30000000000000004"/><path d="M369.74 282.45a1.57 1.57 0 0 1-1.58-1.66l3.6-81.83a1.75 1.75 0 0 1 1.73-1.65h41.16a1.56 1.56 0 0 1 1.58 1.65l-3.6 81.83a1.75 1.75 0 0 1-1.73 1.66Z" style="fill:#fff;opacity:.9"/><path d="M387.44 252.79H381a1.18 1.18 0 0 1-1.18-1.23l.49-11.15a.18.18 0 0 0 0-.14.22.22 0 0 0-.13-.05h-3.38a1.15 1.15 0 0 1-1.09-.73 1.21 1.21 0 0 1 .3-1.34l8.34-8a1.35 1.35 0 0 1 .89-.35 1.16 1.16 0 0 1 .82.37l7.64 8a1.18 1.18 0 0 1 .23 1.29 1.25 1.25 0 0 1-1.14.76h-3.38a.26.26 0 0 0-.24.23l-.49 11.16a1.26 1.26 0 0 1-1.24 1.18Zm-2.23-22a.25.25 0 0 0-.17.07l-8.34 8a.22.22 0 0 0-.06.25.15.15 0 0 0 .16.1h3.38a1.18 1.18 0 0 1 .85.36 1.15 1.15 0 0 1 .32.87l-.49 11.16a.22.22 0 0 0 .05.13.18.18 0 0 0 .13 0h6.4a.26.26 0 0 0 .24-.23l.49-11.15a1.26 1.26 0 0 1 1.24-1.19h3.38a.26.26 0 0 0 .22-.15.19.19 0 0 0 0-.21l-7.64-8a.17.17 0 0 0-.16.01Z" style="fill:#A642AE"/><path d="M399.8 252.79a1.15 1.15 0 0 1-.82-.36l-7.64-8a1.2 1.2 0 0 1-.23-1.3 1.25 1.25 0 0 1 1.14-.76h3.38a.25.25 0 0 0 .24-.23l.49-11.15a1.26 1.26 0 0 1 1.24-1.19h6.4a1.16 1.16 0 0 1 .85.36 1.19 1.19 0 0 1 .33.87l-.49 11.16a.16.16 0 0 0 0 .13.22.22 0 0 0 .13 0h3.38a1.15 1.15 0 0 1 1.09.74 1.19 1.19 0 0 1-.3 1.33l-8.34 8a1.26 1.26 0 0 1-.85.4Zm-7.77-9 7.64 8h.13a.25.25 0 0 0 .17-.07l8.34-8a.21.21 0 0 0 .06-.24.16.16 0 0 0-.16-.11h-3.38a1.18 1.18 0 0 1-.83-.37 1.15 1.15 0 0 1-.32-.87l.49-11.15a.18.18 0 0 0 0-.13.15.15 0 0 0-.13-.06h-6.4a.26.26 0 0 0-.24.23l-.49 11.16a1.26 1.26 0 0 1-1.24 1.18h-3.38a.26.26 0 0 0-.22.15.21.21 0 0 0 0 .22Z" style="fill:#A642AE"/><path style="fill:#fff;opacity:.2" d="M395.6 194.61h-9.83L368.3 288h9.83l17.47-93.39z"/><path style="fill:#fff;opacity:.30000000000000004" d="M406.88 194.61h-2.46L386.96 288h2.46l17.46-93.39z"/><path d="M394.69 195.81a.59.59 0 0 1-.58.55.52.52 0 0 1-.52-.55.58.58 0 0 1 .57-.55.53.53 0 0 1 .53.55Z" style="opacity:.30000000000000004"/><path d="M343.13 348.35H177.66a3.82 3.82 0 0 1-3.85-4l4.76-108.14a4.27 4.27 0 0 1 4.21-4h165.48a3.84 3.84 0 0 1 3.85 4l-4.77 108.14a4.26 4.26 0 0 1-4.21 4Z" style="fill:#263238"/><path d="M341.23 348.35H175.75a3.82 3.82 0 0 1-3.85-4l4.77-108.14a4.27 4.27 0 0 1 4.2-4h165.48a3.83 3.83 0 0 1 3.85 4l-4.77 108.14a4.26 4.26 0 0 1-4.2 4Z" style="fill:#A642AE"/><path d="M343.06 350.11H177.58a4.26 4.26 0 0 0-4 2.77.93.93 0 0 0 .89 1.25h171.29a1 1 0 0 0 1-1.25 3.82 3.82 0 0 0-3.7-2.77Z" style="fill:#263238"/><path d="M314 350.11H148.55a4.26 4.26 0 0 0-4 2.77.93.93 0 0 0 .88 1.25h171.3a1 1 0 0 0 1-1.25 3.82 3.82 0 0 0-3.73-2.77Z" style="fill:#A642AE"/><path d="M246.15 352.37h-29.93a1.9 1.9 0 0 0-1.58 1.76h32.94a1.7 1.7 0 0 0-1.43-1.76Z" style="fill:#fff;opacity:.8"/><path d="M180 342a1.51 1.51 0 0 1-1.52-1.59l4.42-100.3a1.69 1.69 0 0 1 1.66-1.59h157.59a1.52 1.52 0 0 1 1.52 1.59l-4.42 100.3a1.69 1.69 0 0 1-1.66 1.59Z" style="fill:#fff;opacity:.9"/><path d="M252.55 309.19h-10.73a1.62 1.62 0 0 1-1.64-1.71l.83-18.71a.63.63 0 0 0-.18-.47.63.63 0 0 0-.46-.19h-5.66a1.61 1.61 0 0 1-1.52-1 1.71 1.71 0 0 1 .42-1.87l14-13.41a1.7 1.7 0 0 1 2.39 0l12.81 13.41a1.63 1.63 0 0 1 .31 1.8 1.73 1.73 0 0 1-1.6 1.07h-5.66a.75.75 0 0 0-.74.71l-.83 18.71a1.76 1.76 0 0 1-1.74 1.66Zm-3.74-36.86a.75.75 0 0 0-.51.21l-14 13.4a.72.72 0 0 0-.18.78.61.61 0 0 0 .59.39h5.66a1.64 1.64 0 0 1 1.19.5 1.62 1.62 0 0 1 .45 1.21l-.83 18.71a.62.62 0 0 0 .64.66h10.73a.75.75 0 0 0 .74-.71l.83-18.71a1.75 1.75 0 0 1 1.74-1.66h5.66a.73.73 0 0 0 .68-.46.64.64 0 0 0-.11-.72l-12.82-13.41a.62.62 0 0 0-.46-.19Z" style="fill:#A642AE"/><path d="M273.29 309.19a1.64 1.64 0 0 1-1.19-.5l-12.81-13.41a1.65 1.65 0 0 1-.32-1.8 1.75 1.75 0 0 1 1.61-1.07h5.66a.75.75 0 0 0 .74-.71l.83-18.71a1.75 1.75 0 0 1 1.73-1.66h10.74a1.64 1.64 0 0 1 1.19.5 1.62 1.62 0 0 1 .45 1.21l-.83 18.71a.62.62 0 0 0 .17.47.67.67 0 0 0 .47.19h5.66a1.61 1.61 0 0 1 1.52 1 1.71 1.71 0 0 1-.42 1.87l-14 13.4a1.72 1.72 0 0 1-1.2.51ZM260 294.59 272.82 308a.71.71 0 0 0 1 0l14-13.4a.71.71 0 0 0 .19-.78.61.61 0 0 0-.59-.39h-5.66a1.64 1.64 0 0 1-1.19-.5 1.62 1.62 0 0 1-.45-1.21l.83-18.71a.67.67 0 0 0-.18-.47.63.63 0 0 0-.46-.19h-10.77a.74.74 0 0 0-.73.71l-.81 18.69a1.76 1.76 0 0 1-1.74 1.66h-5.66a.76.76 0 0 0-.69.46.66.66 0 0 0 .12.72Z" style="fill:#A642AE"/><path style="fill:#fff;opacity:.2" d="M236.69 232.16h-26.03l-21.73 116.2h26.03l21.73-116.2zm9.63 0h-3.06l-21.73 116.2h3.06l21.73-116.2z"/><path style="fill:#fff;opacity:.30000000000000004" d="M333.84 232.16h-11.99l-21.73 116.2h12l21.72-116.2z"/><path d="M264.64 235.52a1.24 1.24 0 0 1-1.23 1.17 1.11 1.11 0 0 1-1.12-1.17 1.25 1.25 0 0 1 1.23-1.18 1.12 1.12 0 0 1 1.12 1.18Z" style="opacity:.30000000000000004"/><path d="M150.62 310.8H70.18a3.84 3.84 0 0 1-3.85-4l4.77-108.17a4.26 4.26 0 0 1 4.21-4h80.44a3.84 3.84 0 0 1 3.85 4l-4.77 108.14a4.26 4.26 0 0 1-4.21 4.03Z" style="fill:#263238"/><path d="M148.72 310.8H68.28a3.83 3.83 0 0 1-3.85-4l4.77-108.17a4.25 4.25 0 0 1 4.2-4h80.44a3.83 3.83 0 0 1 3.85 4l-4.77 108.14a4.26 4.26 0 0 1-4.2 4.03Z" style="fill:#A642AE"/><path d="M112.35 308.51h-7.5a.89.89 0 0 1-.9-.94v-.24a1 1 0 0 1 1-.94h7.5a.89.89 0 0 1 .89.94v.24a1 1 0 0 1-.99.94Z" style="opacity:.30000000000000004"/><path d="M70 303.9a2 2 0 0 1-2-2.06L72.49 200a2.18 2.18 0 0 1 2.15-2h77.66a2 2 0 0 1 2 2.06l-4.49 101.82a2.18 2.18 0 0 1-2.15 2.06Z" style="fill:#fff;opacity:.9"/><path d="M103.71 267.55h-9.39a1.49 1.49 0 0 1-1.49-1.55l.72-16.36a.5.5 0 0 0-.13-.37.53.53 0 0 0-.36-.15h-5a1.46 1.46 0 0 1-1.39-.93 1.54 1.54 0 0 1 .38-1.7l12.24-11.72a1.59 1.59 0 0 1 1.13-.45 1.54 1.54 0 0 1 1 .46l11.2 11.72a1.52 1.52 0 0 1 .29 1.65 1.6 1.6 0 0 1-1.46 1h-5a.61.61 0 0 0-.59.56l-.57 16.29a1.61 1.61 0 0 1-1.58 1.55Zm-3.28-32.24a.58.58 0 0 0-.4.17L87.79 247.2a.56.56 0 0 0-.14.61.46.46 0 0 0 .46.3h5a1.47 1.47 0 0 1 1.08.46 1.5 1.5 0 0 1 .41 1.1L93.83 266a.5.5 0 0 0 .13.37.51.51 0 0 0 .36.15h9.39a.6.6 0 0 0 .58-.56l.72-16.36a1.61 1.61 0 0 1 1.59-1.52h5a.6.6 0 0 0 .54-.36.51.51 0 0 0-.09-.56l-11.21-11.73a.51.51 0 0 0-.34-.15Z" style="fill:#A642AE"/><path d="M121.84 267.55a1.54 1.54 0 0 1-1-.46l-11.2-11.72a1.52 1.52 0 0 1-.29-1.65 1.6 1.6 0 0 1 1.46-1h5a.6.6 0 0 0 .59-.56l.72-16.36a1.61 1.61 0 0 1 1.58-1.52h9.3a1.49 1.49 0 0 1 1.08.46 1.47 1.47 0 0 1 .41 1.11l-.72 16.35a.5.5 0 0 0 .13.37.51.51 0 0 0 .36.15h5a1.45 1.45 0 0 1 1.38.93 1.54 1.54 0 0 1-.38 1.7l-12.33 11.75a1.57 1.57 0 0 1-1.09.45Zm-11.12-13.8a.6.6 0 0 0-.54.36.53.53 0 0 0 .09.57l11.21 11.72a.53.53 0 0 0 .34.15.71.71 0 0 0 .42-.17l12.24-11.72a.56.56 0 0 0 .14-.61.46.46 0 0 0-.45-.3h-5a1.48 1.48 0 0 1-1.08-.46 1.5 1.5 0 0 1-.41-1.1l.72-16.36a.5.5 0 0 0-.13-.37.51.51 0 0 0-.36-.15h-9.39a.6.6 0 0 0-.58.57l-.72 16.35a1.61 1.61 0 0 1-1.59 1.52Z" style="fill:#A642AE"/><path style="fill:#fff;opacity:.2" d="M129.22 194.61h-26.04L81.46 310.8h26.03l21.73-116.19z"/><path style="fill:#fff;opacity:.30000000000000004" d="M138.85 194.61h-3.07L114.06 310.8h3.06l21.73-116.19z"/><path d="M114.23 196.1a.72.72 0 0 1-.71.69.65.65 0 0 1-.65-.69.73.73 0 0 1 .71-.68.64.64 0 0 1 .65.68Z" style="opacity:.30000000000000004"/></svg>