<svg xmlns="http://www.w3.org/2000/svg" viewBox="0 0 320.128 287.532" xml:space="preserve"><path style="fill:#f47216;fill-opacity:1;fill-rule:nonzero;stroke:none" d="M1691.71 2156.49H126.887C56.777 2156.49 0 2099.7 0 2029.67V126.828C0 56.781 56.777 0 126.887 0H2029.65c70.04 0 126.83 56.781 126.83 126.828V1720.23c0 28.11-7.73 38.14-20.91 51.38-73.46 73.45-316.68 316.69-344.8 344.79-33.15 33.16-48.05 40.09-99.06 40.09" transform="matrix(.13333 0 0 -.13333 0 287.532)"/><path style="fill:#fff;fill-opacity:1;fill-rule:nonzero;stroke:none" d="M1616.88 339.32c-114.44 0-207.27 92.731-207.27 207.282 0 114.5 92.83 207.238 207.27 207.238 114.51 0 207.33-92.738 207.33-207.238 0-114.551-92.82-207.282-207.33-207.282m0 607.7c-221.13 0-400.47-179.301-400.47-400.418 0-221.082 179.34-400.442 400.47-400.442 221.26 0 400.42 179.36 400.42 400.442 0 221.117-179.16 400.418-400.42 400.418M979.629 461.57c-10.262-6.898-25.906-22.16-32.684-32.281-36.855-54.73-100.488-89.969-171.554-89.969-114.453 0-207.274 92.731-207.274 207.282 0 114.5 92.821 207.238 207.274 207.238 71.066 0 134.699-35.25 171.554-89.969 6.778-10.152 22.422-25.359 32.684-32.289 49.221-33.102 125.911-32.453 191.481-26.672-28.3 193.399-194.497 342.11-395.719 342.11-221.278 0-400.457-179.301-400.457-400.418 0-221.082 179.179-400.442 400.457-400.442 201.222 0 367.419 148.699 395.719 342.11-65.57 5.832-142.26 6.55-191.481-26.7M324.016 281.871c0-51.031-41.407-92.422-92.442-92.422-51.015 0-92.394 41.391-92.394 92.422 0 51.039 41.379 92.418 92.394 92.418 51.035 0 92.442-41.379 92.442-92.418" transform="matrix(.13333 0 0 -.13333 0 287.532)"/><path style="fill:#f47216;fill-opacity:1;fill-rule:nonzero;stroke:none" d="M2258.38 1.73v74.461h-26.6v15.18h71.21v-15.18h-26.52V1.731h-18.09m56.01-.001v89.641h27.11l16.24-61.133 16.1 61.133h27.12V1.731h-16.8v70.578L2366.38 1.73h-17.45l-17.7 70.579V1.73h-16.84" transform="matrix(.13333 0 0 -.13333 0 287.532)"/></svg>