<svg version="1.0" id="katman_1" xmlns="http://www.w3.org/2000/svg" xmlns:xlink="http://www.w3.org/1999/xlink" x="0" y="0" viewBox="0 0 600 450" style="enable-background:new 0 0 600 450" xml:space="preserve"><style>.st1{fill:#83cff3}</style><g id="Layer_2"><g id="art"><path d="M239.6 239.5c-6.3 26.5-29.7 48.2-61.3 48.2-35.4 0-62.5-27.8-62.5-62.5 0-34.3 26.8-62.1 61.7-62.1 30.9 0 56 20.4 61.9 49H204c-3.7-8-10.7-16.4-25.3-16.4-7.6-.5-15.1 2.5-20.2 8.2-4.8 5.5-7.6 13-7.6 21.5 0 17 11.2 29.7 27.8 29.7 14.5 0 21.5-8.4 25.3-15.6h35.6zm7-14.3c0-28.4 20.4-61.9 62.9-61.9s62.9 33.5 62.9 62.1-20.4 62.1-62.9 62.1-62.9-33.5-62.9-62.1v-.2zm34.9.4c0 16.8 12.8 29.3 28 29.3s28-12.4 28-29.5-12.8-29.5-28-29.5-28 12.4-28 29.5v.2zm100.2-58.5h32.6v12.4c1.8-3.2 4.2-6 7.1-8.2 5.2-4.2 13.4-8.2 25.6-8.2 8 0 18.1 2.1 26.7 11.2 2.8 2.9 5.1 6.1 6.9 9.7 2.3-3.7 5.2-7.1 8.4-10.1 7.1-6.4 16.5-10.8 28.7-10.8 8.2 0 21.3 1.9 30.7 11.8 10.9 11.6 12.6 19.4 12.6 45.2v63.8h-34.9v-62c0-4.8 0-11.1-2.3-16.4-2.1-5.5-6.5-9.5-15.6-9.5-9.7 0-14.5 4.4-16.8 9.7-2.5 5.3-2.5 11.2-2.5 14.5V284h-35v-63.6c0-3.2 0-9.3-2.1-14.5-2.3-5.5-6.5-9.9-15.4-9.9-9.9 0-14.7 4.6-17.3 10.3s-2.5 12-2.5 15.6V284h-35l.1-116.9z" style="fill:#1463a6"/><path class="st1" d="M39.3 226.2c0 14.8 12 26.8 26.8 26.8s26.8-12 26.8-26.8-12-26.8-26.8-26.8-26.8 12-26.8 26.8"/><defs><path id="SVGID_1_" d="M39.3 226.2c0 14.8 12 26.8 26.8 26.8s26.8-12 26.8-26.8-12-26.8-26.8-26.8-26.8 12-26.8 26.8"/></defs><clipPath id="SVGID_00000158750179569333914280000010326192757412425603_"><use xlink:href="#SVGID_1_" style="overflow:visible"/></clipPath><path class="st1" style="clip-path:url(#SVGID_00000158750179569333914280000010326192757412425603_)" d="M39.3 199.4h53.5v53.5H39.3z"/></g></g></svg>