<?xml version="1.0" encoding="utf-8"?>
<!-- Generator: Adobe Illustrator 19.2.1, SVG Export Plug-In . SVG Version: 6.00 Build 0)  -->
<svg version="1.1" id="layer" xmlns="http://www.w3.org/2000/svg" xmlns:xlink="http://www.w3.org/1999/xlink" x="0px" y="0px"
	 viewBox="0 0 652 652" style="enable-background:new 0 0 652 652;" xml:space="preserve">
<style type="text/css">
	.st0{fill:#FD6B2B;}
</style>
<g>
	<path class="st0" d="M117.5,283.9c-1.3,0.3,2.4,5.3-0.7,9.7c-0.9,0.7-2.4,1.3-3.6,0.9c-3.7-1-7-2.8-10.8-3.6
		c-6.1-0.4,1.1,1.9,0.6,8.6c-0.9,2.1-1.6,3.7-2.1,5.1c-3,5.4-12,25.2-13.8,30.7c-1.7,5.2-1.2,8,1.8,9.6c0.8,0.5,9.6,0.7,27.4,0.7
		h26.2l2.1-4.5l2-4.3l0.1-0.1c0,0,0-0.1,0-0.1c0.6-0.9,1.9-3.7,1.8-5.7c-2.8,0.8-5.2,3.2-5.9,4.2c-0.1-0.8,0.8-2.9,0.4-4
		c-1.9,1.2-3.9,3.7-4.5,4.6c-0.1-0.8,0.8-2.9,0.4-3.9c-1.3,0.9-3.2,3-3.9,3.7c-0.1-0.7,0.7-2.7,0.4-3.6c-1.6,1.1-3.6,3.4-4.3,4.3h-1
		c-6.3-0.1-15.8,2.4-17.5-8.9c-2.2-14.2,6.6-7.2,16.2-4.5c-0.3,0.9-1.6,3.5-1.6,5c2.2-0.6,4.8-2.9,5.6-3.7c-0.2,0.8-1.5,3.3-1.4,4.6
		c2.3-0.6,4.8-2.9,5.6-3.7c0.2,0,0.4,0.1,0.5,0.1c-0.2,0.5-1.5,2.4-1.7,3c3.6,0.1,6.7-2.1,7.7-3c10.7-5.6,18.4-17.1,20.1-23.5
		c0.4-3.5-1-5.6-4.1-6.4c-2-0.6-15.4-0.7-28.4-0.5c-3.7,0-9.3-8.1-13.4-11.1C117.6,283.9,117.6,283.9,117.5,283.9L117.5,283.9z
		 M137.7,303.8c13.9,0,9,23.9-11.1,3.7C131.1,304.8,134.8,303.8,137.7,303.8z M163.9,345c-2.2-1.1-3.6-4.1-3.1-7.1
		c0.2-1.5,3.4-9.5,7.1-17.9l6.8-15.2h-4.9c-2.7,0-4.9-0.2-4.9-0.4c0-0.2,1-2.4,2.1-5l2.1-4.6h9.7l2.6-5.6l2.6-5.6h11.5
		c6.3,0,11.5,0.2,11.5,0.5c0,0.3-1,2.7-2.2,5.3c-1.2,2.6-2.2,4.9-2.2,5c0,0.2,4,0.3,9,0.3c5.5,0,9.6,0.2,9.6,0.6
		c0,0.3-0.9,2.6-1.9,5l-1.9,4.3h-19.1l-1.2,2.3c-2.8,5.5-11.9,26.4-11.9,27.4c0,1.6,1.2,1.8,10.3,1.8c4.6,0,11.2,0.2,11.1,0.5
		c0,0-3.9,8.6-3.9,8.8l-20.3,0C172.2,345.6,164.6,345.4,163.9,345L163.9,345z M21.6,345.4c0-0.2,1.1-2.6,2.5-5.5l2.5-5.3l12.6-0.2
		c11.7-0.2,12.8-0.3,14.4-1.5c1.4-1,4-6.4,12-24.2c5.6-12.6,11.2-24.9,12.3-27.4l2.1-4.5h12c6.6,0,12,0.1,12,0.2
		c0,1.3-25.2,56.3-26.8,58.5c-2.5,3.6-7.4,7.1-12.1,8.9c-3.1,1.2-4.8,1.3-23.5,1.3C30.6,345.7,21.6,345.6,21.6,345.4L21.6,345.4z"/>
	<g>
		<path class="st0" d="M280.6,276.9c1,0,1.9,0.1,2.7,0.2c0.9,0.1,1.7,0.2,2.4,0.5c0.9,0.3,1.7,0.6,2.3,1.1c0.7,0.4,1.2,0.9,1.6,1.4
			c0.4,0.6,0.7,1.2,0.9,1.9c0.2,0.6,0.3,1.3,0.3,2c0,0.8-0.1,1.6-0.3,2.4c-0.2,0.8-0.4,1.5-0.8,2.3l-5.7,12.6
			c-0.4,0.9-0.9,1.7-1.5,2.4c-0.5,0.7-1.1,1.3-1.7,1.9c-0.6,0.6-1.3,1.1-2,1.5c-0.7,0.4-1.4,0.7-2.2,1.1c-0.6,0.3-1.2,0.5-1.8,0.7
			l-1.9,0.4c-1,0.2-2.1,0.3-3.1,0.4c-0.9,0.1-1.8,0.1-2.5,0.1c0.9,0.1,1.8,0.3,2.6,0.5c0.8,0.2,1.6,0.4,2.3,0.7
			c1.2,0.3,2.2,0.8,2.9,1.3c0.4,0.2,0.8,0.4,1,0.8c0.3,0.3,0.5,0.6,0.7,1c0.3,0.6,0.4,1.3,0.3,2c0,0.7-0.2,1.5-0.6,2.3l-7,15.6
			c-0.5,1.2-1.1,2.2-1.8,3.2c-0.6,1-1.3,1.8-2.1,2.6c-0.8,0.7-1.6,1.4-2.5,2c-0.8,0.6-1.7,1.1-2.6,1.5c-0.8,0.4-1.6,0.7-2.5,1.1
			c-0.8,0.3-1.6,0.5-2.4,0.7c-1,0.3-2,0.4-3.1,0.6c-0.9,0.1-1.8,0.1-2.6,0.1h-52l31.1-68.8L280.6,276.9L280.6,276.9z M247.9,288.3
			l-7.3,16.3h15.3c0.3,0,0.7-0.1,1.1-0.3c0.5-0.2,0.9-0.4,1.3-0.7c0.4-0.3,0.8-0.6,1.1-1c0.4-0.4,0.6-0.7,0.8-1.1l4.8-10.7
			c0.1-0.3,0.2-0.6,0.1-1c0-0.3-0.2-0.6-0.3-0.8c-0.2-0.3-0.4-0.4-0.7-0.6c-0.2-0.2-0.5-0.3-0.8-0.3L247.9,288.3L247.9,288.3z
			 M235.5,315.8l-8.4,18.7h15.6c0.4,0,0.7-0.1,1.1-0.3c0.4-0.3,0.9-0.5,1.3-0.9c0.4-0.4,0.8-0.8,1.1-1.2c0.3-0.4,0.6-0.9,0.8-1.3
			l5.6-12.5c0.1-0.3,0.2-0.6,0.1-1c0-0.3-0.2-0.6-0.3-0.8c-0.2-0.3-0.4-0.4-0.7-0.6c-0.2-0.2-0.5-0.3-0.8-0.3H235.5L235.5,315.8z
			 M347.8,312.5l-14.9,33.1h-20.6l1-5.4c-0.2,0.4-0.5,0.7-0.9,1.1l-0.7,0.8c-0.4,0.4-0.8,0.7-1.2,1.1l-1.1,0.8c-1,0.6-1.9,1-2.8,1.3
			c-0.9,0.3-1.9,0.4-2.8,0.4h-21.5c-1.2,0-2.2-0.1-3-0.3c-0.8-0.2-1.5-0.5-2.1-0.9c-0.7-0.4-1.2-0.9-1.6-1.4
			c-0.3-0.6-0.5-1.3-0.6-2.1c-0.1-0.8-0.1-1.8,0-2.8c0.2-1.1,0.5-2.1,0.9-3.2c0.4-1.1,0.8-2.2,1.2-3.3l1.4-3.1l1.3-2.9
			c0.5-1,1-2.1,1.6-3.1c0.6-1,1.2-2,1.8-3c0.7-1,1.5-2,2.2-2.8c0.9-0.9,1.8-1.7,2.7-2.4c1.1-0.8,2.2-1.4,3.3-1.8
			c0.9-0.4,1.9-0.7,3-0.9c1-0.2,2.2-0.3,3.3-0.3h23.9c0.4,0,1-0.1,1.5-0.4c0.6-0.3,1.1-0.6,1.7-1.1c0.4-0.3,0.7-0.6,1-1
			c0.4-0.4,0.6-0.7,0.8-1.1c0.2-0.4,0.3-0.8,0.2-1.2c0-0.4-0.1-0.7-0.3-1c-0.2-0.3-0.4-0.6-0.7-0.8c-0.3-0.2-0.6-0.3-1-0.3H293
			l4.5-9.9h44.3c1.3,0,2.4,0.1,3.4,0.4c1,0.2,1.9,0.5,2.5,1c0.8,0.4,1.4,1,1.8,1.7c0.5,0.7,0.7,1.5,0.9,2.3c0.2,0.8,0.2,1.6,0.1,2.5
			c0,0.8-0.1,1.7-0.3,2.6c-0.2,1.2-0.6,2.4-1.1,3.7C348.7,310.3,348.3,311.4,347.8,312.5L347.8,312.5z M320.5,321.3h-11.4
			c-0.5,0-1.1,0.1-1.7,0.4c-0.6,0.3-1.1,0.6-1.7,1c-0.5,0.4-1,0.8-1.5,1.3c-0.5,0.4-0.8,0.9-1,1.3l-3.3,7.2
			c-0.1,0.3-0.2,0.7-0.3,1.1l0.1,1c0.2,0.3,0.4,0.6,0.8,0.9c0.3,0.3,0.7,0.4,1.1,0.4h9.2c0.3,0,0.7-0.1,1.2-0.3
			c0.5-0.3,1-0.5,1.4-0.9c0.4-0.3,0.7-0.5,1-0.9c0.4-0.4,0.6-0.7,0.8-1.1L320.5,321.3L320.5,321.3z M413,295.2l-4.5,9.9h-23.3
			c-0.5,0-1.1,0.1-1.7,0.4c-0.6,0.3-1.2,0.6-1.8,1c-0.6,0.4-1.2,0.8-1.7,1.3c-0.5,0.4-0.8,0.9-1,1.3l-10.3,22.9
			c-0.2,0.4-0.3,0.9-0.3,1.4c0.1,0.4,0.3,0.8,0.5,1.2c0.3,0.4,0.6,0.7,1.1,0.9c0.4,0.2,0.9,0.3,1.4,0.3h23.2l-4.5,10h-37.5
			c-1.3,0-2.5-0.1-3.5-0.4c-1-0.3-1.8-0.6-2.5-1.1c-0.6-0.5-1.1-1.1-1.6-1.7c-0.4-0.6-0.7-1.4-0.8-2.2c-0.2-0.6-0.3-1.3-0.3-2.1
			c0-0.8,0.1-1.5,0.3-2.3c0.2-0.8,0.4-1.6,0.6-2.4c0.2-0.8,0.5-1.6,0.9-2.4l9.5-21.1c0.4-0.9,0.9-1.8,1.5-2.8c0.7-1,1.3-2,2.1-2.9
			c0.8-1,1.6-1.9,2.4-2.8c0.9-0.9,1.9-1.7,2.9-2.5c0.9-0.6,1.8-1.2,2.7-1.7c1-0.6,2-1.1,3.1-1.4c0.8-0.3,1.6-0.4,2.4-0.6
			c0.9-0.1,1.8-0.2,2.6-0.2L413,295.2L413,295.2z M435.4,312.7l28-17.5h14.8l-19.3,12.1l4.2,38.5h-27.8l-0.2-23.8l-5.5,3.8
			l-9.1,20.1l-23.2-0.1l31.1-69h23.3L435.4,312.7z M517,295l-17.2,38.1c-0.1,0.3-0.2,0.7-0.2,1.1c0,0.3,0.1,0.6,0.3,0.9
			c0.2,0.3,0.4,0.5,0.7,0.7c0.3,0.1,0.7,0.2,1,0.2H512c0.3,0,0.7-0.1,1-0.2c0.4-0.1,0.9-0.3,1.2-0.6c0.4-0.3,0.7-0.5,1-0.8
			c0.3-0.3,0.6-0.6,0.7-1l17.3-38.3h23.4l-22.9,50.7h-49.2c-1.1,0-2.1-0.1-2.9-0.3c-0.8-0.3-1.6-0.6-2.3-1c-0.6-0.4-1.2-1-1.6-1.5
			c-0.4-0.6-0.8-1.3-1-2c-0.3-0.7-0.5-1.5-0.6-2.3c0-0.9,0-1.8,0.1-2.7c0.1-0.9,0.3-1.8,0.5-2.7c0.3-1,0.7-1.9,1.1-2.8l16-35.5
			L517,295L517,295z M613.5,295.1c0.9,0,1.8,0.1,2.6,0.3c0.9,0.2,1.6,0.5,2.3,0.9c1.1,0.6,1.9,1.4,2.4,2.5c0.4,0.8,0.7,1.7,0.8,2.8
			c0.1,1,0,2.2-0.3,3.6c-0.2,0.8-0.5,1.7-0.8,2.7c-0.3,0.9-0.6,1.9-1.1,2.9l-8.9,19.7c-0.5,1-1,2-1.5,3c-0.5,0.9-1,1.8-1.6,2.6
			c-0.8,1-1.6,2-2.5,2.9c-0.8,0.9-1.6,1.7-2.4,2.4c-0.8,0.7-1.7,1.3-2.6,1.8c-0.9,0.5-1.7,1-2.6,1.3c-1.2,0.4-2.3,0.8-3.5,1.1
			c-1.1,0.2-2.2,0.3-3.2,0.3h-26.3l-8.6,19.1h-23.2l31.5-69.9H613.5L613.5,295.1z M595.8,305.1H585c-0.3,0-0.7,0.1-1.1,0.4
			c-0.3,0.2-0.7,0.4-1,0.7c-0.4,0.3-0.8,0.7-1.1,1.1c-0.3,0.3-0.5,0.6-0.6,1l-11.3,25c-0.1,0.3-0.2,0.5-0.2,0.9
			c0,0.3,0.1,0.6,0.3,0.9c0.1,0.3,0.3,0.5,0.6,0.7c0.3,0.1,0.6,0.2,0.9,0.2h10.7c0.3,0,0.6-0.1,1-0.2c0.4-0.2,0.8-0.4,1.1-0.6
			c0.4-0.3,0.7-0.6,1-1c0.4-0.4,0.6-0.7,0.8-1.1l11.4-25.2c0.1-0.3,0.2-0.6,0.1-1c0-0.3,0-0.6-0.2-0.9c-0.1-0.3-0.3-0.4-0.6-0.6
			C596.4,305.2,596.2,305.1,595.8,305.1L595.8,305.1z"/>
	</g>
</g>
</svg>
