<svg xmlns="http://www.w3.org/2000/svg" version="1.0" viewBox="0 0 600 450" style="enable-background:new 0 0 600 450" xml:space="preserve"><path d="M197.7 228.1c0-10.2-.2-18.8-.7-26.2h22.1l1.2 11.2h.5c5.7-8.3 15.2-13.1 25.2-13.1 16.7 0 29.3 10.9 29.3 35.2v48.5h-25.5v-45.2c0-10.5-3.6-17.6-12.8-17.6-5.9 0-11.2 3.8-12.8 9.5-.7 1.9-1 4-1 6.2v47.1h-25.5v-55.6zm89.7-63.1h25.5v118.5h-25.5V165zm63.8 14.3c0 6.9-5.2 12.6-13.8 12.6-6.9.5-12.8-4.8-13.1-11.7V179c-.2-7.4 5.2-12.8 13.3-12.8 6.9-.5 13.1 5 13.6 11.9v1.2zM325 283.7v-81.9h25.5v81.6l-25.5.3zm37.3-55.6c0-10.2-.2-18.8-.7-26.2h22.1l1.2 11.2h.5c5.7-8.3 15.2-13.1 25.2-13.1 16.7 0 29.3 10.9 29.3 35.2v48.5h-25.5v-45.2c0-10.5-3.6-17.6-12.8-17.6-5.9 0-11.2 3.8-12.8 9.5-.7 2.1-1 4.3-1 6.4V284h-25.5v-55.9zm109 22.8c1 10.5 11.2 15.5 23.1 15.5 7.6 0 15.2-1 22.6-3.3l3.3 17.1c-9.5 3.6-19.5 5.2-29.5 5-27.8 0-43.5-15.9-43.5-41.6 0-20.7 12.8-43.5 41.2-43.5 26.4 0 36.4 20.5 36.4 40.7 0 3.3-.2 6.7-1 10l-52.6.1zm30-17.4c0-6.2-2.6-16.7-14.3-16.7-10.7 0-15 9.8-15.7 16.7h30zM148.7 200c-26.2 0-43.5 16.9-43.5 43.3v2.1c7.9 4.8 12.6 13.3 12.6 22.6 0 2.1-.2 4.3-.7 6.2 8.3 7.6 19 11.7 30.2 11.4 21.9 0 43.1-13.8 43.1-43.5-.1-24.8-16.7-42.1-41.7-42.1zm-.7 67.3c-10.9 0-16.7-10.5-16.7-24.5 0-11.9 4.5-24.5 16.7-24.5 11.4 0 16.2 12.4 16.2 24.5-.1 14.5-6.3 24.5-16.2 24.5z" style="fill:#3c3c3c"/><circle cx="93" cy="267.3" r="17.6" style="fill:#0fa64b"/></svg>