<svg version="1.0" xmlns="http://www.w3.org/2000/svg" viewBox="0 0 600 450" style="enable-background:new 0 0 600 450" xml:space="preserve"><path d="M437.1 116c23.8 5 37.8 20.4 40.8 44.5.6 5.3.9 10.7 1.2 16.5h-36.7c-.3-2.8-.6-5.6-.8-8.6-.6-10.9-5.3-17-16-18.5-6.7-.9-13.4-.8-20.1.5-6.8.9-12.3 6.2-13.4 13.1-1.6 8.7-.5 17.1 7 23.2 5 3.9 10.3 7.5 15.9 10.6 13.1 7.5 26.9 13.8 39.5 22.1 30.3 19.9 38.3 63 17.7 91.8-7.6 10.6-18.8 18-31.4 21-16.2 4.4-33.3 4.5-49.5.5-23.2-5.8-38-22.4-41.2-46-.8-5.8-.9-11.5-1.4-17.6h39.4c.3 3.4.3 7 .9 10.4 3 17.6 12.6 24.7 31 22.9 18.4-1.9 29.1-17 24.7-34.7-1.7-7.2-6.5-12.3-12.4-15.9-10.9-6.5-22.2-12.3-33.3-18.5-6.4-3.6-13.1-7.2-19.1-11.4-19.1-13.2-27.4-31.6-26-54.6 1.7-28.6 19.4-47.9 48.1-51.9 10.8-2.7 22.6-2 35.1.6zM216.5 249.9c0 7.3.9 14.5 2.5 21.6 4.4 19.1 17.6 28.3 37.2 26.8 18.2-1.4 28.3-10.6 31.7-29.2 1.4-7.5 2.2-14.9 2.2-22.4.2-41.7.2-83.2.2-124.9v-5.4h40.9v144.9c.2 11.8-2 23.5-6.4 34.5-8.2 19.9-22.7 33.3-43.7 38.1-19.1 4.4-38.9 4.2-58-.5-9-2.2-20.4-7.6-27.2-13.8 5.1-27.7 1.4-50.7-20.8-65.9V116.3H216l.5 133.6zm-41.7 48.5c1.2 14-10.7 31-31 31.1-17.1.8-31.6-12.4-32.5-29.4-.9-17 12.3-31.7 29.4-32.5h3.1c16.8-.3 30.6 13.2 31 30v.8z" style="fill:#186b98"/></svg>